<mxfile host="app.diagrams.net" agent="Mozilla/5.0 (Windows NT 10.0; Win64; x64) AppleWebKit/537.36 (KHTML, like Gecko) Chrome/129.0.0.0 Safari/537.36" version="24.7.16">
  <diagram name="Page-1" id="LX0zoRBLvZy6mpNq2Fod">
    <mxGraphModel dx="2767" dy="804" grid="1" gridSize="10" guides="1" tooltips="1" connect="1" arrows="1" fold="1" page="1" pageScale="1" pageWidth="827" pageHeight="1169" math="0" shadow="0">
      <root>
        <mxCell id="0" />
        <mxCell id="1" parent="0" />
        <mxCell id="TGrmqVtgV3evlCNhXeL7-1" value="Doctors" style="rounded=1;arcSize=10;whiteSpace=wrap;html=1;align=center;movable=1;resizable=1;rotatable=1;deletable=1;editable=1;locked=0;connectable=1;" parent="1" vertex="1">
          <mxGeometry x="260" y="290" width="100" height="40" as="geometry" />
        </mxCell>
        <mxCell id="TGrmqVtgV3evlCNhXeL7-5" value="" style="endArrow=none;html=1;rounded=0;exitX=0.5;exitY=1;exitDx=0;exitDy=0;entryX=0.5;entryY=0;entryDx=0;entryDy=0;movable=1;resizable=1;rotatable=1;deletable=1;editable=1;locked=0;connectable=1;" parent="1" source="TGrmqVtgV3evlCNhXeL7-29" target="TGrmqVtgV3evlCNhXeL7-1" edge="1">
          <mxGeometry relative="1" as="geometry">
            <mxPoint x="160" y="160" as="sourcePoint" />
            <mxPoint x="320" y="210" as="targetPoint" />
          </mxGeometry>
        </mxCell>
        <mxCell id="TGrmqVtgV3evlCNhXeL7-7" value="profile" style="ellipse;whiteSpace=wrap;html=1;align=center;movable=1;resizable=1;rotatable=1;deletable=1;editable=1;locked=0;connectable=1;" parent="1" vertex="1">
          <mxGeometry x="284" y="200" width="100" height="40" as="geometry" />
        </mxCell>
        <mxCell id="TGrmqVtgV3evlCNhXeL7-8" value="" style="endArrow=none;html=1;rounded=0;exitX=0.5;exitY=1;exitDx=0;exitDy=0;entryX=0.5;entryY=0;entryDx=0;entryDy=0;movable=1;resizable=1;rotatable=1;deletable=1;editable=1;locked=0;connectable=1;" parent="1" source="TGrmqVtgV3evlCNhXeL7-7" target="TGrmqVtgV3evlCNhXeL7-1" edge="1">
          <mxGeometry relative="1" as="geometry">
            <mxPoint x="170" y="170" as="sourcePoint" />
            <mxPoint x="220" y="260" as="targetPoint" />
          </mxGeometry>
        </mxCell>
        <mxCell id="TGrmqVtgV3evlCNhXeL7-11" value="years_of_exp" style="ellipse;whiteSpace=wrap;html=1;align=center;movable=1;resizable=1;rotatable=1;deletable=1;editable=1;locked=0;connectable=1;" parent="1" vertex="1">
          <mxGeometry x="400" y="150" width="100" height="40" as="geometry" />
        </mxCell>
        <mxCell id="TGrmqVtgV3evlCNhXeL7-12" value="specialty" style="ellipse;whiteSpace=wrap;html=1;align=center;movable=1;resizable=1;rotatable=1;deletable=1;editable=1;locked=0;connectable=1;" parent="1" vertex="1">
          <mxGeometry x="314" y="110" width="100" height="40" as="geometry" />
        </mxCell>
        <mxCell id="TGrmqVtgV3evlCNhXeL7-13" value="name" style="ellipse;whiteSpace=wrap;html=1;align=center;movable=1;resizable=1;rotatable=1;deletable=1;editable=1;locked=0;connectable=1;" parent="1" vertex="1">
          <mxGeometry x="200" y="110" width="100" height="40" as="geometry" />
        </mxCell>
        <mxCell id="TGrmqVtgV3evlCNhXeL7-14" value="" style="endArrow=none;html=1;rounded=0;exitX=0.5;exitY=1;exitDx=0;exitDy=0;entryX=0.5;entryY=0;entryDx=0;entryDy=0;movable=1;resizable=1;rotatable=1;deletable=1;editable=1;locked=0;connectable=1;" parent="1" source="TGrmqVtgV3evlCNhXeL7-13" target="TGrmqVtgV3evlCNhXeL7-7" edge="1">
          <mxGeometry relative="1" as="geometry">
            <mxPoint x="170" y="170" as="sourcePoint" />
            <mxPoint x="230" y="260" as="targetPoint" />
          </mxGeometry>
        </mxCell>
        <mxCell id="TGrmqVtgV3evlCNhXeL7-15" value="" style="endArrow=none;html=1;rounded=0;exitX=0.5;exitY=1;exitDx=0;exitDy=0;entryX=0.5;entryY=0;entryDx=0;entryDy=0;movable=1;resizable=1;rotatable=1;deletable=1;editable=1;locked=0;connectable=1;" parent="1" source="TGrmqVtgV3evlCNhXeL7-12" target="TGrmqVtgV3evlCNhXeL7-7" edge="1">
          <mxGeometry relative="1" as="geometry">
            <mxPoint x="250" y="90" as="sourcePoint" />
            <mxPoint x="290" y="170" as="targetPoint" />
          </mxGeometry>
        </mxCell>
        <mxCell id="TGrmqVtgV3evlCNhXeL7-17" value="" style="endArrow=none;html=1;rounded=0;exitX=0.5;exitY=1;exitDx=0;exitDy=0;entryX=0.5;entryY=0;entryDx=0;entryDy=0;movable=1;resizable=1;rotatable=1;deletable=1;editable=1;locked=0;connectable=1;" parent="1" source="TGrmqVtgV3evlCNhXeL7-11" target="TGrmqVtgV3evlCNhXeL7-7" edge="1">
          <mxGeometry relative="1" as="geometry">
            <mxPoint x="370" y="90" as="sourcePoint" />
            <mxPoint x="290" y="180" as="targetPoint" />
          </mxGeometry>
        </mxCell>
        <mxCell id="TGrmqVtgV3evlCNhXeL7-18" value="Departments" style="rounded=1;arcSize=10;whiteSpace=wrap;html=1;align=center;movable=1;resizable=1;rotatable=1;deletable=1;editable=1;locked=0;connectable=1;" parent="1" vertex="1">
          <mxGeometry x="670" y="270" width="100" height="40" as="geometry" />
        </mxCell>
        <mxCell id="TGrmqVtgV3evlCNhXeL7-19" value="" style="endArrow=none;html=1;rounded=0;entryX=0.5;entryY=0;entryDx=0;entryDy=0;exitX=0.5;exitY=1;exitDx=0;exitDy=0;movable=1;resizable=1;rotatable=1;deletable=1;editable=1;locked=0;connectable=1;" parent="1" source="TGrmqVtgV3evlCNhXeL7-28" target="TGrmqVtgV3evlCNhXeL7-18" edge="1">
          <mxGeometry relative="1" as="geometry">
            <mxPoint x="680" y="80" as="sourcePoint" />
            <mxPoint x="840" y="130" as="targetPoint" />
          </mxGeometry>
        </mxCell>
        <mxCell id="TGrmqVtgV3evlCNhXeL7-22" value="location" style="ellipse;whiteSpace=wrap;html=1;align=center;movable=1;resizable=1;rotatable=1;deletable=1;editable=1;locked=0;connectable=1;" parent="1" vertex="1">
          <mxGeometry x="810" y="110" width="100" height="40" as="geometry" />
        </mxCell>
        <mxCell id="TGrmqVtgV3evlCNhXeL7-23" value="description" style="ellipse;whiteSpace=wrap;html=1;align=center;movable=1;resizable=1;rotatable=1;deletable=1;editable=1;locked=0;connectable=1;" parent="1" vertex="1">
          <mxGeometry x="710" y="110" width="100" height="40" as="geometry" />
        </mxCell>
        <mxCell id="TGrmqVtgV3evlCNhXeL7-26" value="" style="endArrow=none;html=1;rounded=0;exitX=0.5;exitY=1;exitDx=0;exitDy=0;entryX=0.5;entryY=0;entryDx=0;entryDy=0;movable=1;resizable=1;rotatable=1;deletable=1;editable=1;locked=0;connectable=1;" parent="1" source="TGrmqVtgV3evlCNhXeL7-24" target="TGrmqVtgV3evlCNhXeL7-18" edge="1">
          <mxGeometry relative="1" as="geometry">
            <mxPoint x="770" y="10" as="sourcePoint" />
            <mxPoint x="810" y="100" as="targetPoint" />
          </mxGeometry>
        </mxCell>
        <mxCell id="TGrmqVtgV3evlCNhXeL7-27" value="" style="endArrow=none;html=1;rounded=0;exitX=0.5;exitY=1;exitDx=0;exitDy=0;entryX=0.5;entryY=0;entryDx=0;entryDy=0;movable=1;resizable=1;rotatable=1;deletable=1;editable=1;locked=0;connectable=1;" parent="1" source="TGrmqVtgV3evlCNhXeL7-22" target="TGrmqVtgV3evlCNhXeL7-18" edge="1">
          <mxGeometry relative="1" as="geometry">
            <mxPoint x="890" y="10" as="sourcePoint" />
            <mxPoint x="810" y="100" as="targetPoint" />
          </mxGeometry>
        </mxCell>
        <mxCell id="TGrmqVtgV3evlCNhXeL7-28" value="department_id" style="ellipse;whiteSpace=wrap;html=1;align=center;fontStyle=4;movable=1;resizable=1;rotatable=1;deletable=1;editable=1;locked=0;connectable=1;" parent="1" vertex="1">
          <mxGeometry x="540" y="150" width="100" height="40" as="geometry" />
        </mxCell>
        <mxCell id="TGrmqVtgV3evlCNhXeL7-29" value="staff_id" style="ellipse;whiteSpace=wrap;html=1;align=center;fontStyle=4;movable=1;resizable=1;rotatable=1;deletable=1;editable=1;locked=0;connectable=1;" parent="1" vertex="1">
          <mxGeometry x="124" y="180" width="100" height="40" as="geometry" />
        </mxCell>
        <mxCell id="TGrmqVtgV3evlCNhXeL7-30" value="" style="endArrow=none;html=1;rounded=0;exitX=0.5;exitY=1;exitDx=0;exitDy=0;entryX=0.5;entryY=0;entryDx=0;entryDy=0;movable=1;resizable=1;rotatable=1;deletable=1;editable=1;locked=0;connectable=1;" parent="1" source="TGrmqVtgV3evlCNhXeL7-23" target="TGrmqVtgV3evlCNhXeL7-18" edge="1">
          <mxGeometry relative="1" as="geometry">
            <mxPoint x="850" as="sourcePoint" />
            <mxPoint x="730" y="230" as="targetPoint" />
          </mxGeometry>
        </mxCell>
        <mxCell id="TGrmqVtgV3evlCNhXeL7-24" value="department_name" style="ellipse;whiteSpace=wrap;html=1;align=center;movable=1;resizable=1;rotatable=1;deletable=1;editable=1;locked=0;connectable=1;" parent="1" vertex="1">
          <mxGeometry x="610" y="110" width="100" height="40" as="geometry" />
        </mxCell>
        <mxCell id="TGrmqVtgV3evlCNhXeL7-32" value="Patients" style="rounded=1;arcSize=10;whiteSpace=wrap;html=1;align=center;" parent="1" vertex="1">
          <mxGeometry x="300" y="500.26" width="100" height="40" as="geometry" />
        </mxCell>
        <mxCell id="TGrmqVtgV3evlCNhXeL7-33" value="" style="endArrow=none;html=1;rounded=0;exitX=0.5;exitY=1;exitDx=0;exitDy=0;entryX=0.5;entryY=1;entryDx=0;entryDy=0;" parent="1" source="TGrmqVtgV3evlCNhXeL7-42" target="TGrmqVtgV3evlCNhXeL7-32" edge="1">
          <mxGeometry relative="1" as="geometry">
            <mxPoint x="110" y="440" as="sourcePoint" />
            <mxPoint x="270" y="490" as="targetPoint" />
          </mxGeometry>
        </mxCell>
        <mxCell id="TGrmqVtgV3evlCNhXeL7-34" value="profile" style="ellipse;whiteSpace=wrap;html=1;align=center;" parent="1" vertex="1">
          <mxGeometry x="300" y="630" width="100" height="40" as="geometry" />
        </mxCell>
        <mxCell id="TGrmqVtgV3evlCNhXeL7-35" value="" style="endArrow=none;html=1;rounded=0;exitX=0.5;exitY=0;exitDx=0;exitDy=0;entryX=0.5;entryY=1;entryDx=0;entryDy=0;" parent="1" source="TGrmqVtgV3evlCNhXeL7-34" target="TGrmqVtgV3evlCNhXeL7-32" edge="1">
          <mxGeometry relative="1" as="geometry">
            <mxPoint x="120" y="450" as="sourcePoint" />
            <mxPoint x="170" y="540" as="targetPoint" />
          </mxGeometry>
        </mxCell>
        <mxCell id="TGrmqVtgV3evlCNhXeL7-36" value="address" style="ellipse;whiteSpace=wrap;html=1;align=center;" parent="1" vertex="1">
          <mxGeometry x="314" y="730" width="100" height="40" as="geometry" />
        </mxCell>
        <mxCell id="TGrmqVtgV3evlCNhXeL7-38" value="first_name" style="ellipse;whiteSpace=wrap;html=1;align=center;" parent="1" vertex="1">
          <mxGeometry x="130" y="690" width="100" height="40" as="geometry" />
        </mxCell>
        <mxCell id="TGrmqVtgV3evlCNhXeL7-39" value="" style="endArrow=none;html=1;rounded=0;exitX=0.5;exitY=0;exitDx=0;exitDy=0;entryX=0.5;entryY=1;entryDx=0;entryDy=0;" parent="1" source="TGrmqVtgV3evlCNhXeL7-38" target="TGrmqVtgV3evlCNhXeL7-34" edge="1">
          <mxGeometry relative="1" as="geometry">
            <mxPoint x="244" y="530" as="sourcePoint" />
            <mxPoint x="304" y="620" as="targetPoint" />
          </mxGeometry>
        </mxCell>
        <mxCell id="TGrmqVtgV3evlCNhXeL7-40" value="" style="endArrow=none;html=1;rounded=0;exitX=0.5;exitY=0;exitDx=0;exitDy=0;entryX=0.5;entryY=1;entryDx=0;entryDy=0;" parent="1" source="TGrmqVtgV3evlCNhXeL7-63" target="TGrmqVtgV3evlCNhXeL7-34" edge="1">
          <mxGeometry relative="1" as="geometry">
            <mxPoint x="504" y="860" as="sourcePoint" />
            <mxPoint x="364" y="530" as="targetPoint" />
          </mxGeometry>
        </mxCell>
        <mxCell id="TGrmqVtgV3evlCNhXeL7-41" value="" style="endArrow=none;html=1;rounded=0;exitX=0.5;exitY=0;exitDx=0;exitDy=0;entryX=0.5;entryY=1;entryDx=0;entryDy=0;" parent="1" source="TGrmqVtgV3evlCNhXeL7-36" target="TGrmqVtgV3evlCNhXeL7-34" edge="1">
          <mxGeometry relative="1" as="geometry">
            <mxPoint x="444" y="450" as="sourcePoint" />
            <mxPoint x="414" y="690" as="targetPoint" />
          </mxGeometry>
        </mxCell>
        <mxCell id="TGrmqVtgV3evlCNhXeL7-42" value="SSN" style="ellipse;whiteSpace=wrap;html=1;align=center;fontStyle=4;" parent="1" vertex="1">
          <mxGeometry x="40" y="630" width="100" height="40" as="geometry" />
        </mxCell>
        <mxCell id="TGrmqVtgV3evlCNhXeL7-44" value="last_name" style="ellipse;whiteSpace=wrap;html=1;align=center;" parent="1" vertex="1">
          <mxGeometry x="200" y="730" width="100" height="40" as="geometry" />
        </mxCell>
        <mxCell id="TGrmqVtgV3evlCNhXeL7-45" value="" style="endArrow=none;html=1;rounded=0;exitX=0.5;exitY=0;exitDx=0;exitDy=0;entryX=0.5;entryY=1;entryDx=0;entryDy=0;" parent="1" source="TGrmqVtgV3evlCNhXeL7-44" target="TGrmqVtgV3evlCNhXeL7-34" edge="1">
          <mxGeometry relative="1" as="geometry">
            <mxPoint x="294" y="580" as="sourcePoint" />
            <mxPoint x="404" y="730" as="targetPoint" />
          </mxGeometry>
        </mxCell>
        <mxCell id="TGrmqVtgV3evlCNhXeL7-47" value="" style="endArrow=none;html=1;rounded=0;exitX=0.5;exitY=0;exitDx=0;exitDy=0;entryX=0.5;entryY=1;entryDx=0;entryDy=0;" parent="1" source="TGrmqVtgV3evlCNhXeL7-50" target="TGrmqVtgV3evlCNhXeL7-34" edge="1">
          <mxGeometry relative="1" as="geometry">
            <mxPoint x="593.9999999999999" y="830" as="sourcePoint" />
            <mxPoint x="404" y="750" as="targetPoint" />
          </mxGeometry>
        </mxCell>
        <mxCell id="TGrmqVtgV3evlCNhXeL7-48" value="date_of_birth" style="ellipse;whiteSpace=wrap;html=1;align=center;" parent="1" vertex="1">
          <mxGeometry x="520" y="650" width="100" height="40" as="geometry" />
        </mxCell>
        <mxCell id="TGrmqVtgV3evlCNhXeL7-49" value="" style="endArrow=none;html=1;rounded=0;exitX=-0.01;exitY=0.706;exitDx=0;exitDy=0;entryX=0.5;entryY=1;entryDx=0;entryDy=0;exitPerimeter=0;" parent="1" source="TGrmqVtgV3evlCNhXeL7-48" target="TGrmqVtgV3evlCNhXeL7-34" edge="1">
          <mxGeometry relative="1" as="geometry">
            <mxPoint x="344" y="470" as="sourcePoint" />
            <mxPoint x="414" y="750" as="targetPoint" />
          </mxGeometry>
        </mxCell>
        <mxCell id="TGrmqVtgV3evlCNhXeL7-50" value="age" style="ellipse;whiteSpace=wrap;html=1;align=center;dashed=1;" parent="1" vertex="1">
          <mxGeometry x="520" y="720.26" width="100" height="40" as="geometry" />
        </mxCell>
        <mxCell id="TGrmqVtgV3evlCNhXeL7-52" value="works_in" style="shape=rhombus;perimeter=rhombusPerimeter;whiteSpace=wrap;html=1;align=center;movable=1;resizable=1;rotatable=1;deletable=1;editable=1;locked=0;connectable=1;" parent="1" vertex="1">
          <mxGeometry x="454" y="260" width="120" height="60" as="geometry" />
        </mxCell>
        <mxCell id="TGrmqVtgV3evlCNhXeL7-59" value="" style="endArrow=none;html=1;rounded=0;entryX=0;entryY=0.5;entryDx=0;entryDy=0;exitX=1;exitY=0.5;exitDx=0;exitDy=0;movable=1;resizable=1;rotatable=1;deletable=1;editable=1;locked=0;connectable=1;" parent="1" source="TGrmqVtgV3evlCNhXeL7-1" target="TGrmqVtgV3evlCNhXeL7-52" edge="1">
          <mxGeometry relative="1" as="geometry">
            <mxPoint x="520" y="280" as="sourcePoint" />
            <mxPoint x="360" y="280" as="targetPoint" />
          </mxGeometry>
        </mxCell>
        <mxCell id="TGrmqVtgV3evlCNhXeL7-60" value="N" style="resizable=1;html=1;whiteSpace=wrap;align=right;verticalAlign=bottom;movable=1;rotatable=1;deletable=1;editable=1;locked=0;connectable=1;" parent="TGrmqVtgV3evlCNhXeL7-59" connectable="0" vertex="1">
          <mxGeometry x="1" relative="1" as="geometry" />
        </mxCell>
        <mxCell id="TGrmqVtgV3evlCNhXeL7-61" value="" style="shape=link;html=1;rounded=0;movable=1;resizable=1;rotatable=1;deletable=1;editable=1;locked=0;connectable=1;entryX=0;entryY=0.5;entryDx=0;entryDy=0;exitX=1;exitY=0.5;exitDx=0;exitDy=0;" parent="1" source="TGrmqVtgV3evlCNhXeL7-52" target="TGrmqVtgV3evlCNhXeL7-18" edge="1">
          <mxGeometry relative="1" as="geometry">
            <mxPoint x="520" y="290" as="sourcePoint" />
            <mxPoint x="690" y="220" as="targetPoint" />
          </mxGeometry>
        </mxCell>
        <mxCell id="TGrmqVtgV3evlCNhXeL7-62" value="1" style="resizable=1;html=1;whiteSpace=wrap;align=right;verticalAlign=bottom;movable=1;rotatable=1;deletable=1;editable=1;locked=0;connectable=1;" parent="TGrmqVtgV3evlCNhXeL7-61" connectable="0" vertex="1">
          <mxGeometry x="1" relative="1" as="geometry" />
        </mxCell>
        <mxCell id="TGrmqVtgV3evlCNhXeL7-63" value="phone_num" style="ellipse;shape=doubleEllipse;margin=3;whiteSpace=wrap;html=1;align=center;" parent="1" vertex="1">
          <mxGeometry x="420" y="740" width="100" height="40" as="geometry" />
        </mxCell>
        <mxCell id="TGrmqVtgV3evlCNhXeL7-64" value="Medications" style="rounded=1;arcSize=10;whiteSpace=wrap;html=1;align=center;" parent="1" vertex="1">
          <mxGeometry x="-190" y="640.26" width="100" height="40" as="geometry" />
        </mxCell>
        <mxCell id="TGrmqVtgV3evlCNhXeL7-66" value="medication_id" style="ellipse;whiteSpace=wrap;html=1;align=center;fontStyle=4;" parent="1" vertex="1">
          <mxGeometry x="-320" y="760.26" width="100" height="40" as="geometry" />
        </mxCell>
        <mxCell id="TGrmqVtgV3evlCNhXeL7-67" value="price" style="ellipse;whiteSpace=wrap;html=1;align=center;" parent="1" vertex="1">
          <mxGeometry x="30" y="760.26" width="100" height="40" as="geometry" />
        </mxCell>
        <mxCell id="TGrmqVtgV3evlCNhXeL7-68" value="description" style="ellipse;whiteSpace=wrap;html=1;align=center;" parent="1" vertex="1">
          <mxGeometry x="-90" y="760.26" width="100" height="40" as="geometry" />
        </mxCell>
        <mxCell id="TGrmqVtgV3evlCNhXeL7-69" value="medication_name" style="ellipse;whiteSpace=wrap;html=1;align=center;" parent="1" vertex="1">
          <mxGeometry x="-203" y="760.26" width="100" height="40" as="geometry" />
        </mxCell>
        <mxCell id="TGrmqVtgV3evlCNhXeL7-70" value="" style="endArrow=none;html=1;rounded=0;exitX=0.5;exitY=0;exitDx=0;exitDy=0;entryX=0.5;entryY=1;entryDx=0;entryDy=0;" parent="1" source="TGrmqVtgV3evlCNhXeL7-66" target="TGrmqVtgV3evlCNhXeL7-64" edge="1">
          <mxGeometry relative="1" as="geometry">
            <mxPoint x="-230" y="610.26" as="sourcePoint" />
            <mxPoint x="-170" y="690.26" as="targetPoint" />
          </mxGeometry>
        </mxCell>
        <mxCell id="TGrmqVtgV3evlCNhXeL7-71" value="" style="endArrow=none;html=1;rounded=0;exitX=0.5;exitY=1;exitDx=0;exitDy=0;entryX=0.5;entryY=0;entryDx=0;entryDy=0;" parent="1" source="TGrmqVtgV3evlCNhXeL7-64" target="TGrmqVtgV3evlCNhXeL7-69" edge="1">
          <mxGeometry relative="1" as="geometry">
            <mxPoint x="-160" y="700.26" as="sourcePoint" />
            <mxPoint x="-260" y="770.26" as="targetPoint" />
          </mxGeometry>
        </mxCell>
        <mxCell id="TGrmqVtgV3evlCNhXeL7-73" value="" style="endArrow=none;html=1;rounded=0;exitX=0.5;exitY=0;exitDx=0;exitDy=0;entryX=0.5;entryY=1;entryDx=0;entryDy=0;" parent="1" source="TGrmqVtgV3evlCNhXeL7-68" target="TGrmqVtgV3evlCNhXeL7-64" edge="1">
          <mxGeometry relative="1" as="geometry">
            <mxPoint x="-260" y="770.26" as="sourcePoint" />
            <mxPoint x="-150" y="690.26" as="targetPoint" />
          </mxGeometry>
        </mxCell>
        <mxCell id="TGrmqVtgV3evlCNhXeL7-74" value="" style="endArrow=none;html=1;rounded=0;exitX=0.5;exitY=0;exitDx=0;exitDy=0;entryX=0.5;entryY=1;entryDx=0;entryDy=0;" parent="1" source="TGrmqVtgV3evlCNhXeL7-67" target="TGrmqVtgV3evlCNhXeL7-64" edge="1">
          <mxGeometry relative="1" as="geometry">
            <mxPoint x="-250" y="780.26" as="sourcePoint" />
            <mxPoint x="-140" y="700.26" as="targetPoint" />
          </mxGeometry>
        </mxCell>
        <mxCell id="TGrmqVtgV3evlCNhXeL7-84" value="Prescriptions" style="rounded=1;arcSize=10;whiteSpace=wrap;html=1;align=center;" parent="1" vertex="1">
          <mxGeometry x="-30" y="390" width="100" height="40" as="geometry" />
        </mxCell>
        <mxCell id="TGrmqVtgV3evlCNhXeL7-85" value="prescription_id" style="ellipse;whiteSpace=wrap;html=1;align=center;fontStyle=4;" parent="1" vertex="1">
          <mxGeometry x="-103" y="240" width="100" height="40" as="geometry" />
        </mxCell>
        <mxCell id="TGrmqVtgV3evlCNhXeL7-86" value="staff_id" style="ellipse;whiteSpace=wrap;html=1;align=center;" parent="1" vertex="1">
          <mxGeometry x="-260" y="410" width="100" height="40" as="geometry" />
        </mxCell>
        <mxCell id="TGrmqVtgV3evlCNhXeL7-87" value="patient_name" style="ellipse;whiteSpace=wrap;html=1;align=center;" parent="1" vertex="1">
          <mxGeometry x="-260" y="340" width="100" height="40" as="geometry" />
        </mxCell>
        <mxCell id="TGrmqVtgV3evlCNhXeL7-88" value="issue_date" style="ellipse;whiteSpace=wrap;html=1;align=center;" parent="1" vertex="1">
          <mxGeometry x="-203" y="290" width="100" height="40" as="geometry" />
        </mxCell>
        <mxCell id="TGrmqVtgV3evlCNhXeL7-89" value="" style="endArrow=none;html=1;rounded=0;exitX=1;exitY=0.5;exitDx=0;exitDy=0;entryX=0;entryY=0.5;entryDx=0;entryDy=0;" parent="1" source="TGrmqVtgV3evlCNhXeL7-85" target="TGrmqVtgV3evlCNhXeL7-84" edge="1">
          <mxGeometry relative="1" as="geometry">
            <mxPoint x="-215" y="280" as="sourcePoint" />
            <mxPoint x="-155" y="360" as="targetPoint" />
          </mxGeometry>
        </mxCell>
        <mxCell id="TGrmqVtgV3evlCNhXeL7-90" value="" style="endArrow=none;html=1;rounded=0;exitX=0;exitY=0.5;exitDx=0;exitDy=0;entryX=1;entryY=0.5;entryDx=0;entryDy=0;" parent="1" source="TGrmqVtgV3evlCNhXeL7-84" target="TGrmqVtgV3evlCNhXeL7-88" edge="1">
          <mxGeometry relative="1" as="geometry">
            <mxPoint x="-145" y="370" as="sourcePoint" />
            <mxPoint x="-245" y="440" as="targetPoint" />
          </mxGeometry>
        </mxCell>
        <mxCell id="TGrmqVtgV3evlCNhXeL7-91" value="" style="endArrow=none;html=1;rounded=0;exitX=1;exitY=0.5;exitDx=0;exitDy=0;entryX=0;entryY=0.5;entryDx=0;entryDy=0;" parent="1" source="TGrmqVtgV3evlCNhXeL7-87" target="TGrmqVtgV3evlCNhXeL7-84" edge="1">
          <mxGeometry relative="1" as="geometry">
            <mxPoint x="-245" y="440" as="sourcePoint" />
            <mxPoint x="-135" y="360" as="targetPoint" />
          </mxGeometry>
        </mxCell>
        <mxCell id="TGrmqVtgV3evlCNhXeL7-92" value="" style="endArrow=none;html=1;rounded=0;exitX=1;exitY=0.5;exitDx=0;exitDy=0;entryX=0;entryY=0.5;entryDx=0;entryDy=0;" parent="1" source="TGrmqVtgV3evlCNhXeL7-86" target="TGrmqVtgV3evlCNhXeL7-84" edge="1">
          <mxGeometry relative="1" as="geometry">
            <mxPoint x="-235" y="450" as="sourcePoint" />
            <mxPoint x="-180" y="330" as="targetPoint" />
          </mxGeometry>
        </mxCell>
        <mxCell id="TGrmqVtgV3evlCNhXeL7-94" value="medication_name" style="ellipse;shape=doubleEllipse;margin=3;whiteSpace=wrap;html=1;align=center;" parent="1" vertex="1">
          <mxGeometry x="-230" y="470" width="100" height="40" as="geometry" />
        </mxCell>
        <mxCell id="TGrmqVtgV3evlCNhXeL7-95" value="" style="endArrow=none;html=1;rounded=0;exitX=0;exitY=0.5;exitDx=0;exitDy=0;entryX=0.5;entryY=0;entryDx=0;entryDy=0;" parent="1" source="TGrmqVtgV3evlCNhXeL7-84" target="TGrmqVtgV3evlCNhXeL7-94" edge="1">
          <mxGeometry relative="1" as="geometry">
            <mxPoint x="30" y="370" as="sourcePoint" />
            <mxPoint x="190" y="370" as="targetPoint" />
          </mxGeometry>
        </mxCell>
        <mxCell id="TGrmqVtgV3evlCNhXeL7-96" value="Rooms" style="rounded=1;arcSize=10;whiteSpace=wrap;html=1;align=center;" parent="1" vertex="1">
          <mxGeometry x="720" y="540" width="100" height="40" as="geometry" />
        </mxCell>
        <mxCell id="TGrmqVtgV3evlCNhXeL7-97" value="room_id" style="ellipse;whiteSpace=wrap;html=1;align=center;fontStyle=4;" parent="1" vertex="1">
          <mxGeometry x="640" y="660.24" width="100" height="40" as="geometry" />
        </mxCell>
        <mxCell id="TGrmqVtgV3evlCNhXeL7-100" value="location" style="ellipse;whiteSpace=wrap;html=1;align=center;" parent="1" vertex="1">
          <mxGeometry x="860" y="670" width="100" height="40" as="geometry" />
        </mxCell>
        <mxCell id="TGrmqVtgV3evlCNhXeL7-101" value="" style="endArrow=none;html=1;rounded=0;exitX=0.5;exitY=0;exitDx=0;exitDy=0;entryX=0.5;entryY=1;entryDx=0;entryDy=0;" parent="1" source="TGrmqVtgV3evlCNhXeL7-97" target="TGrmqVtgV3evlCNhXeL7-96" edge="1">
          <mxGeometry relative="1" as="geometry">
            <mxPoint x="820" y="690.24" as="sourcePoint" />
            <mxPoint x="870" y="630.24" as="targetPoint" />
          </mxGeometry>
        </mxCell>
        <mxCell id="TGrmqVtgV3evlCNhXeL7-102" value="" style="endArrow=none;html=1;rounded=0;exitX=0.5;exitY=1;exitDx=0;exitDy=0;entryX=0.5;entryY=0;entryDx=0;entryDy=0;" parent="1" source="TGrmqVtgV3evlCNhXeL7-96" target="TGrmqVtgV3evlCNhXeL7-100" edge="1">
          <mxGeometry relative="1" as="geometry">
            <mxPoint x="880" y="640.24" as="sourcePoint" />
            <mxPoint x="780" y="710.24" as="targetPoint" />
          </mxGeometry>
        </mxCell>
        <mxCell id="TGrmqVtgV3evlCNhXeL7-105" value="room_type" style="ellipse;shape=doubleEllipse;margin=3;whiteSpace=wrap;html=1;align=center;" parent="1" vertex="1">
          <mxGeometry x="920" y="600.26" width="100" height="40" as="geometry" />
        </mxCell>
        <mxCell id="TGrmqVtgV3evlCNhXeL7-106" value="" style="endArrow=none;html=1;rounded=0;entryX=0;entryY=0.5;entryDx=0;entryDy=0;exitX=0.5;exitY=1;exitDx=0;exitDy=0;" parent="1" source="TGrmqVtgV3evlCNhXeL7-96" target="TGrmqVtgV3evlCNhXeL7-105" edge="1">
          <mxGeometry relative="1" as="geometry">
            <mxPoint x="930" y="610.24" as="sourcePoint" />
            <mxPoint x="1215" y="640.24" as="targetPoint" />
          </mxGeometry>
        </mxCell>
        <mxCell id="HcK_ja4kcMRoRNhla7Qg-1" value="assigned" style="shape=rhombus;perimeter=rhombusPerimeter;whiteSpace=wrap;html=1;align=center;" vertex="1" parent="1">
          <mxGeometry x="470" y="500.26" width="120" height="60" as="geometry" />
        </mxCell>
        <mxCell id="HcK_ja4kcMRoRNhla7Qg-2" value="belongs_to" style="shape=rhombus;perimeter=rhombusPerimeter;whiteSpace=wrap;html=1;align=center;movable=1;resizable=1;rotatable=1;deletable=1;editable=1;locked=0;connectable=1;" vertex="1" parent="1">
          <mxGeometry x="730" y="430" width="120" height="60" as="geometry" />
        </mxCell>
        <mxCell id="HcK_ja4kcMRoRNhla7Qg-3" value="" style="shape=link;html=1;rounded=0;movable=1;resizable=1;rotatable=1;deletable=1;editable=1;locked=0;connectable=1;exitX=0.5;exitY=1;exitDx=0;exitDy=0;entryX=0.5;entryY=0;entryDx=0;entryDy=0;" edge="1" parent="1" source="TGrmqVtgV3evlCNhXeL7-18" target="HcK_ja4kcMRoRNhla7Qg-2">
          <mxGeometry relative="1" as="geometry">
            <mxPoint x="760" y="220" as="sourcePoint" />
            <mxPoint x="560" y="260" as="targetPoint" />
          </mxGeometry>
        </mxCell>
        <mxCell id="HcK_ja4kcMRoRNhla7Qg-4" value="1" style="resizable=1;html=1;whiteSpace=wrap;align=right;verticalAlign=bottom;movable=1;rotatable=1;deletable=1;editable=1;locked=0;connectable=1;" connectable="0" vertex="1" parent="HcK_ja4kcMRoRNhla7Qg-3">
          <mxGeometry x="1" relative="1" as="geometry" />
        </mxCell>
        <mxCell id="HcK_ja4kcMRoRNhla7Qg-5" value="" style="endArrow=none;html=1;rounded=0;entryX=0.5;entryY=0;entryDx=0;entryDy=0;exitX=0.5;exitY=1;exitDx=0;exitDy=0;movable=1;resizable=1;rotatable=1;deletable=1;editable=1;locked=0;connectable=1;" edge="1" parent="1" source="HcK_ja4kcMRoRNhla7Qg-2" target="TGrmqVtgV3evlCNhXeL7-96">
          <mxGeometry relative="1" as="geometry">
            <mxPoint x="730" y="310" as="sourcePoint" />
            <mxPoint x="570" y="330" as="targetPoint" />
          </mxGeometry>
        </mxCell>
        <mxCell id="HcK_ja4kcMRoRNhla7Qg-6" value="N" style="resizable=1;html=1;whiteSpace=wrap;align=right;verticalAlign=bottom;movable=1;rotatable=1;deletable=1;editable=1;locked=0;connectable=1;" connectable="0" vertex="1" parent="HcK_ja4kcMRoRNhla7Qg-5">
          <mxGeometry x="1" relative="1" as="geometry" />
        </mxCell>
        <mxCell id="HcK_ja4kcMRoRNhla7Qg-11" value="time_period" style="ellipse;whiteSpace=wrap;html=1;align=center;" vertex="1" parent="1">
          <mxGeometry x="480" y="430" width="100" height="40" as="geometry" />
        </mxCell>
        <mxCell id="HcK_ja4kcMRoRNhla7Qg-12" value="start_time" style="ellipse;whiteSpace=wrap;html=1;align=center;" vertex="1" parent="1">
          <mxGeometry x="390" y="360" width="100" height="40" as="geometry" />
        </mxCell>
        <mxCell id="HcK_ja4kcMRoRNhla7Qg-13" value="end_time" style="ellipse;whiteSpace=wrap;html=1;align=center;" vertex="1" parent="1">
          <mxGeometry x="550" y="360" width="100" height="40" as="geometry" />
        </mxCell>
        <mxCell id="HcK_ja4kcMRoRNhla7Qg-16" value="" style="endArrow=none;html=1;rounded=0;exitX=0.5;exitY=1;exitDx=0;exitDy=0;entryX=0.5;entryY=0;entryDx=0;entryDy=0;" edge="1" parent="1" source="HcK_ja4kcMRoRNhla7Qg-11" target="HcK_ja4kcMRoRNhla7Qg-1">
          <mxGeometry relative="1" as="geometry">
            <mxPoint x="460" y="530" as="sourcePoint" />
            <mxPoint x="620" y="530" as="targetPoint" />
          </mxGeometry>
        </mxCell>
        <mxCell id="HcK_ja4kcMRoRNhla7Qg-17" value="" style="endArrow=none;html=1;rounded=0;exitX=0.5;exitY=1;exitDx=0;exitDy=0;entryX=0.5;entryY=0;entryDx=0;entryDy=0;" edge="1" parent="1" source="HcK_ja4kcMRoRNhla7Qg-12" target="HcK_ja4kcMRoRNhla7Qg-11">
          <mxGeometry relative="1" as="geometry">
            <mxPoint x="440" y="470" as="sourcePoint" />
            <mxPoint x="500" y="500" as="targetPoint" />
          </mxGeometry>
        </mxCell>
        <mxCell id="HcK_ja4kcMRoRNhla7Qg-18" value="" style="endArrow=none;html=1;rounded=0;exitX=0.5;exitY=1;exitDx=0;exitDy=0;entryX=0.5;entryY=0;entryDx=0;entryDy=0;" edge="1" parent="1" source="HcK_ja4kcMRoRNhla7Qg-13" target="HcK_ja4kcMRoRNhla7Qg-11">
          <mxGeometry relative="1" as="geometry">
            <mxPoint x="450" y="480" as="sourcePoint" />
            <mxPoint x="510" y="510" as="targetPoint" />
          </mxGeometry>
        </mxCell>
        <mxCell id="HcK_ja4kcMRoRNhla7Qg-21" value="Equipment" style="rounded=1;arcSize=10;whiteSpace=wrap;html=1;align=center;" vertex="1" parent="1">
          <mxGeometry x="990" y="420" width="100" height="40" as="geometry" />
        </mxCell>
        <mxCell id="HcK_ja4kcMRoRNhla7Qg-22" value="equipment_id" style="ellipse;whiteSpace=wrap;html=1;align=center;fontStyle=4;" vertex="1" parent="1">
          <mxGeometry x="1130" y="290" width="100" height="40" as="geometry" />
        </mxCell>
        <mxCell id="HcK_ja4kcMRoRNhla7Qg-23" value="description" style="ellipse;whiteSpace=wrap;html=1;align=center;" vertex="1" parent="1">
          <mxGeometry x="1200" y="470" width="100" height="40" as="geometry" />
        </mxCell>
        <mxCell id="HcK_ja4kcMRoRNhla7Qg-24" value="type" style="ellipse;whiteSpace=wrap;html=1;align=center;" vertex="1" parent="1">
          <mxGeometry x="1100" y="500" width="100" height="40" as="geometry" />
        </mxCell>
        <mxCell id="HcK_ja4kcMRoRNhla7Qg-25" value="equipment_name" style="ellipse;whiteSpace=wrap;html=1;align=center;" vertex="1" parent="1">
          <mxGeometry x="1241" y="360" width="100" height="40" as="geometry" />
        </mxCell>
        <mxCell id="HcK_ja4kcMRoRNhla7Qg-26" value="" style="endArrow=none;html=1;rounded=0;exitX=0.5;exitY=1;exitDx=0;exitDy=0;entryX=1;entryY=0.5;entryDx=0;entryDy=0;" edge="1" parent="1" source="HcK_ja4kcMRoRNhla7Qg-22" target="HcK_ja4kcMRoRNhla7Qg-21">
          <mxGeometry relative="1" as="geometry">
            <mxPoint x="1060" y="230" as="sourcePoint" />
            <mxPoint x="1120" y="310" as="targetPoint" />
          </mxGeometry>
        </mxCell>
        <mxCell id="HcK_ja4kcMRoRNhla7Qg-27" value="" style="endArrow=none;html=1;rounded=0;exitX=1;exitY=0.5;exitDx=0;exitDy=0;entryX=0;entryY=0.5;entryDx=0;entryDy=0;" edge="1" parent="1" source="HcK_ja4kcMRoRNhla7Qg-21" target="HcK_ja4kcMRoRNhla7Qg-25">
          <mxGeometry relative="1" as="geometry">
            <mxPoint x="1130" y="320" as="sourcePoint" />
            <mxPoint x="1030" y="390" as="targetPoint" />
          </mxGeometry>
        </mxCell>
        <mxCell id="HcK_ja4kcMRoRNhla7Qg-28" value="" style="endArrow=none;html=1;rounded=0;exitX=0.5;exitY=0;exitDx=0;exitDy=0;entryX=1;entryY=0.5;entryDx=0;entryDy=0;" edge="1" parent="1" source="HcK_ja4kcMRoRNhla7Qg-24" target="HcK_ja4kcMRoRNhla7Qg-21">
          <mxGeometry relative="1" as="geometry">
            <mxPoint x="1030" y="390" as="sourcePoint" />
            <mxPoint x="1140" y="310" as="targetPoint" />
          </mxGeometry>
        </mxCell>
        <mxCell id="HcK_ja4kcMRoRNhla7Qg-29" value="" style="endArrow=none;html=1;rounded=0;exitX=0.5;exitY=0;exitDx=0;exitDy=0;entryX=1;entryY=0.5;entryDx=0;entryDy=0;" edge="1" parent="1" source="HcK_ja4kcMRoRNhla7Qg-23" target="HcK_ja4kcMRoRNhla7Qg-21">
          <mxGeometry relative="1" as="geometry">
            <mxPoint x="1040" y="400" as="sourcePoint" />
            <mxPoint x="1150" y="320" as="targetPoint" />
          </mxGeometry>
        </mxCell>
        <mxCell id="HcK_ja4kcMRoRNhla7Qg-30" value="belongs" style="shape=rhombus;perimeter=rhombusPerimeter;whiteSpace=wrap;html=1;align=center;movable=1;resizable=1;rotatable=1;deletable=1;editable=1;locked=0;connectable=1;" vertex="1" parent="1">
          <mxGeometry x="840" y="360" width="120" height="60" as="geometry" />
        </mxCell>
        <mxCell id="HcK_ja4kcMRoRNhla7Qg-33" value="" style="endArrow=none;html=1;rounded=0;entryX=0.5;entryY=0;entryDx=0;entryDy=0;exitX=1;exitY=0.5;exitDx=0;exitDy=0;movable=1;resizable=1;rotatable=1;deletable=1;editable=1;locked=0;connectable=1;" edge="1" parent="1" source="HcK_ja4kcMRoRNhla7Qg-30" target="HcK_ja4kcMRoRNhla7Qg-21">
          <mxGeometry relative="1" as="geometry">
            <mxPoint x="1090" y="135" as="sourcePoint" />
            <mxPoint x="1200" y="295" as="targetPoint" />
          </mxGeometry>
        </mxCell>
        <mxCell id="HcK_ja4kcMRoRNhla7Qg-34" value="N" style="resizable=1;html=1;whiteSpace=wrap;align=right;verticalAlign=bottom;movable=1;rotatable=1;deletable=1;editable=1;locked=0;connectable=1;" connectable="0" vertex="1" parent="HcK_ja4kcMRoRNhla7Qg-33">
          <mxGeometry x="1" relative="1" as="geometry" />
        </mxCell>
        <mxCell id="HcK_ja4kcMRoRNhla7Qg-35" value="" style="endArrow=none;html=1;rounded=0;exitX=1;exitY=0.5;exitDx=0;exitDy=0;entryX=0;entryY=0.5;entryDx=0;entryDy=0;" edge="1" parent="1" source="TGrmqVtgV3evlCNhXeL7-18" target="HcK_ja4kcMRoRNhla7Qg-30">
          <mxGeometry relative="1" as="geometry">
            <mxPoint x="930" y="320" as="sourcePoint" />
            <mxPoint x="1090" y="320" as="targetPoint" />
          </mxGeometry>
        </mxCell>
        <mxCell id="HcK_ja4kcMRoRNhla7Qg-36" value="1" style="resizable=0;html=1;whiteSpace=wrap;align=right;verticalAlign=bottom;" connectable="0" vertex="1" parent="HcK_ja4kcMRoRNhla7Qg-35">
          <mxGeometry x="1" relative="1" as="geometry" />
        </mxCell>
        <mxCell id="HcK_ja4kcMRoRNhla7Qg-37" value="department_id" style="ellipse;whiteSpace=wrap;html=1;align=center;fontStyle=4;" vertex="1" parent="1">
          <mxGeometry x="750" y="680.26" width="100" height="40" as="geometry" />
        </mxCell>
        <mxCell id="HcK_ja4kcMRoRNhla7Qg-38" value="" style="endArrow=none;html=1;rounded=0;exitX=0.5;exitY=0;exitDx=0;exitDy=0;entryX=0.5;entryY=1;entryDx=0;entryDy=0;" edge="1" parent="1" source="HcK_ja4kcMRoRNhla7Qg-37" target="TGrmqVtgV3evlCNhXeL7-96">
          <mxGeometry relative="1" as="geometry">
            <mxPoint x="890" y="590.24" as="sourcePoint" />
            <mxPoint x="930" y="620.24" as="targetPoint" />
          </mxGeometry>
        </mxCell>
        <mxCell id="HcK_ja4kcMRoRNhla7Qg-41" value="prescribes" style="shape=rhombus;perimeter=rhombusPerimeter;whiteSpace=wrap;html=1;align=center;movable=1;resizable=1;rotatable=1;deletable=1;editable=1;locked=0;connectable=1;" vertex="1" parent="1">
          <mxGeometry x="60" y="280" width="120" height="60" as="geometry" />
        </mxCell>
        <mxCell id="HcK_ja4kcMRoRNhla7Qg-42" value="" style="endArrow=none;html=1;rounded=0;entryX=0.5;entryY=0;entryDx=0;entryDy=0;exitX=0;exitY=0.5;exitDx=0;exitDy=0;movable=1;resizable=1;rotatable=1;deletable=1;editable=1;locked=0;connectable=1;" edge="1" parent="1" source="HcK_ja4kcMRoRNhla7Qg-41" target="TGrmqVtgV3evlCNhXeL7-84">
          <mxGeometry relative="1" as="geometry">
            <mxPoint x="115" y="145" as="sourcePoint" />
            <mxPoint x="175" y="270" as="targetPoint" />
          </mxGeometry>
        </mxCell>
        <mxCell id="HcK_ja4kcMRoRNhla7Qg-43" value="N" style="resizable=1;html=1;whiteSpace=wrap;align=right;verticalAlign=bottom;movable=1;rotatable=1;deletable=1;editable=1;locked=0;connectable=1;" connectable="0" vertex="1" parent="HcK_ja4kcMRoRNhla7Qg-42">
          <mxGeometry x="1" relative="1" as="geometry" />
        </mxCell>
        <mxCell id="HcK_ja4kcMRoRNhla7Qg-44" value="" style="endArrow=none;html=1;rounded=0;exitX=0;exitY=0.5;exitDx=0;exitDy=0;entryX=1;entryY=0.5;entryDx=0;entryDy=0;" edge="1" parent="1" target="HcK_ja4kcMRoRNhla7Qg-41" source="TGrmqVtgV3evlCNhXeL7-1">
          <mxGeometry relative="1" as="geometry">
            <mxPoint x="-175" y="210" as="sourcePoint" />
            <mxPoint x="115" y="330" as="targetPoint" />
          </mxGeometry>
        </mxCell>
        <mxCell id="HcK_ja4kcMRoRNhla7Qg-45" value="1" style="resizable=0;html=1;whiteSpace=wrap;align=right;verticalAlign=bottom;" connectable="0" vertex="1" parent="HcK_ja4kcMRoRNhla7Qg-44">
          <mxGeometry x="1" relative="1" as="geometry" />
        </mxCell>
        <mxCell id="HcK_ja4kcMRoRNhla7Qg-51" value="receives" style="shape=rhombus;perimeter=rhombusPerimeter;whiteSpace=wrap;html=1;align=center;movable=1;resizable=1;rotatable=1;deletable=1;editable=1;locked=0;connectable=1;" vertex="1" parent="1">
          <mxGeometry x="124" y="430" width="120" height="60" as="geometry" />
        </mxCell>
        <mxCell id="HcK_ja4kcMRoRNhla7Qg-52" value="" style="endArrow=none;html=1;rounded=0;entryX=0;entryY=0.5;entryDx=0;entryDy=0;exitX=0.5;exitY=1;exitDx=0;exitDy=0;movable=1;resizable=1;rotatable=1;deletable=1;editable=1;locked=0;connectable=1;" edge="1" parent="1" source="TGrmqVtgV3evlCNhXeL7-84" target="HcK_ja4kcMRoRNhla7Qg-51">
          <mxGeometry relative="1" as="geometry">
            <mxPoint x="-165" y="390" as="sourcePoint" />
            <mxPoint x="100" y="365" as="targetPoint" />
          </mxGeometry>
        </mxCell>
        <mxCell id="HcK_ja4kcMRoRNhla7Qg-53" value="N" style="resizable=1;html=1;whiteSpace=wrap;align=right;verticalAlign=bottom;movable=1;rotatable=1;deletable=1;editable=1;locked=0;connectable=1;" connectable="0" vertex="1" parent="HcK_ja4kcMRoRNhla7Qg-52">
          <mxGeometry x="1" relative="1" as="geometry" />
        </mxCell>
        <mxCell id="HcK_ja4kcMRoRNhla7Qg-54" value="" style="endArrow=none;html=1;rounded=0;exitX=1;exitY=0.5;exitDx=0;exitDy=0;entryX=0.5;entryY=0;entryDx=0;entryDy=0;" edge="1" parent="1" target="TGrmqVtgV3evlCNhXeL7-32" source="HcK_ja4kcMRoRNhla7Qg-51">
          <mxGeometry relative="1" as="geometry">
            <mxPoint x="100" y="550" as="sourcePoint" />
            <mxPoint x="80" y="590" as="targetPoint" />
          </mxGeometry>
        </mxCell>
        <mxCell id="HcK_ja4kcMRoRNhla7Qg-55" value="1" style="resizable=0;html=1;whiteSpace=wrap;align=right;verticalAlign=bottom;" connectable="0" vertex="1" parent="HcK_ja4kcMRoRNhla7Qg-54">
          <mxGeometry x="1" relative="1" as="geometry" />
        </mxCell>
        <mxCell id="HcK_ja4kcMRoRNhla7Qg-56" value="contains" style="shape=rhombus;perimeter=rhombusPerimeter;whiteSpace=wrap;html=1;align=center;movable=1;resizable=1;rotatable=1;deletable=1;editable=1;locked=0;connectable=1;" vertex="1" parent="1">
          <mxGeometry x="-70" y="510" width="120" height="60" as="geometry" />
        </mxCell>
        <mxCell id="HcK_ja4kcMRoRNhla7Qg-57" value="" style="endArrow=none;html=1;rounded=0;entryX=0.108;entryY=0.007;entryDx=0;entryDy=0;exitX=0.5;exitY=1;exitDx=0;exitDy=0;movable=1;resizable=1;rotatable=1;deletable=1;editable=1;locked=0;connectable=1;entryPerimeter=0;" edge="1" parent="1" source="HcK_ja4kcMRoRNhla7Qg-56" target="TGrmqVtgV3evlCNhXeL7-64">
          <mxGeometry relative="1" as="geometry">
            <mxPoint y="420" as="sourcePoint" />
            <mxPoint x="-240" y="585" as="targetPoint" />
          </mxGeometry>
        </mxCell>
        <mxCell id="HcK_ja4kcMRoRNhla7Qg-58" value="N" style="resizable=1;html=1;whiteSpace=wrap;align=right;verticalAlign=bottom;movable=1;rotatable=1;deletable=1;editable=1;locked=0;connectable=1;" connectable="0" vertex="1" parent="HcK_ja4kcMRoRNhla7Qg-57">
          <mxGeometry x="1" relative="1" as="geometry" />
        </mxCell>
        <mxCell id="HcK_ja4kcMRoRNhla7Qg-61" value="" style="shape=link;html=1;rounded=0;entryX=0.5;entryY=0;entryDx=0;entryDy=0;exitX=0.5;exitY=1;exitDx=0;exitDy=0;" edge="1" parent="1" source="TGrmqVtgV3evlCNhXeL7-84" target="HcK_ja4kcMRoRNhla7Qg-56">
          <mxGeometry relative="1" as="geometry">
            <mxPoint x="150" y="450" as="sourcePoint" />
            <mxPoint x="-10" y="450" as="targetPoint" />
          </mxGeometry>
        </mxCell>
        <mxCell id="HcK_ja4kcMRoRNhla7Qg-62" value="1" style="resizable=0;html=1;whiteSpace=wrap;align=right;verticalAlign=bottom;" connectable="0" vertex="1" parent="HcK_ja4kcMRoRNhla7Qg-61">
          <mxGeometry x="1" relative="1" as="geometry" />
        </mxCell>
        <mxCell id="HcK_ja4kcMRoRNhla7Qg-79" value="available_rooms" style="ellipse;whiteSpace=wrap;html=1;align=center;movable=1;resizable=1;rotatable=1;deletable=1;editable=1;locked=0;connectable=1;" vertex="1" parent="1">
          <mxGeometry x="910" y="150" width="100" height="40" as="geometry" />
        </mxCell>
        <mxCell id="HcK_ja4kcMRoRNhla7Qg-80" value="" style="endArrow=none;html=1;rounded=0;exitX=0.5;exitY=1;exitDx=0;exitDy=0;entryX=0.5;entryY=0;entryDx=0;entryDy=0;movable=1;resizable=1;rotatable=1;deletable=1;editable=1;locked=0;connectable=1;" edge="1" parent="1" source="HcK_ja4kcMRoRNhla7Qg-79" target="TGrmqVtgV3evlCNhXeL7-18">
          <mxGeometry relative="1" as="geometry">
            <mxPoint x="900" y="20" as="sourcePoint" />
            <mxPoint x="760" y="190" as="targetPoint" />
          </mxGeometry>
        </mxCell>
        <mxCell id="HcK_ja4kcMRoRNhla7Qg-83" style="edgeStyle=orthogonalEdgeStyle;rounded=0;orthogonalLoop=1;jettySize=auto;html=1;exitX=0.5;exitY=1;exitDx=0;exitDy=0;" edge="1" parent="1" source="HcK_ja4kcMRoRNhla7Qg-24" target="HcK_ja4kcMRoRNhla7Qg-24">
          <mxGeometry relative="1" as="geometry" />
        </mxCell>
        <mxCell id="HcK_ja4kcMRoRNhla7Qg-89" value="" style="endArrow=none;html=1;rounded=0;entryX=0;entryY=0.5;entryDx=0;entryDy=0;exitX=1;exitY=0.5;exitDx=0;exitDy=0;" edge="1" parent="1" source="HcK_ja4kcMRoRNhla7Qg-1" target="TGrmqVtgV3evlCNhXeL7-96">
          <mxGeometry relative="1" as="geometry">
            <mxPoint x="470" y="410" as="sourcePoint" />
            <mxPoint x="630" y="410" as="targetPoint" />
          </mxGeometry>
        </mxCell>
        <mxCell id="HcK_ja4kcMRoRNhla7Qg-90" value="N" style="resizable=0;html=1;whiteSpace=wrap;align=right;verticalAlign=bottom;" connectable="0" vertex="1" parent="HcK_ja4kcMRoRNhla7Qg-89">
          <mxGeometry x="1" relative="1" as="geometry" />
        </mxCell>
        <mxCell id="HcK_ja4kcMRoRNhla7Qg-91" value="" style="endArrow=none;html=1;rounded=0;entryX=0;entryY=0.5;entryDx=0;entryDy=0;exitX=1;exitY=0.5;exitDx=0;exitDy=0;" edge="1" parent="1" source="TGrmqVtgV3evlCNhXeL7-32" target="HcK_ja4kcMRoRNhla7Qg-1">
          <mxGeometry relative="1" as="geometry">
            <mxPoint x="630" y="604" as="sourcePoint" />
            <mxPoint x="720" y="594" as="targetPoint" />
          </mxGeometry>
        </mxCell>
        <mxCell id="HcK_ja4kcMRoRNhla7Qg-92" value="N" style="resizable=0;html=1;whiteSpace=wrap;align=right;verticalAlign=bottom;" connectable="0" vertex="1" parent="HcK_ja4kcMRoRNhla7Qg-91">
          <mxGeometry x="1" relative="1" as="geometry" />
        </mxCell>
      </root>
    </mxGraphModel>
  </diagram>
</mxfile>
